<svg width="164" height="44" viewBox="0 0 164 44" fill="none" xmlns="http://www.w3.org/2000/svg">
    <path
        d="M64.957 28.4356C69.2637 28.4356 71.6953 25.7986 71.6953 21.4484C71.6953 17.1078 69.2637 14.4996 65.1328 14.4996H60.5625V28.4356H64.957ZM62.3203 26.8957V16.0395H65.0156C68.3066 16.0395 69.9766 18.0799 69.9766 21.4484C69.9766 24.8265 68.3066 26.8957 64.8398 26.8957H62.3203Z"
        fill="#C1C1C1" />
    <path
        d="M79.0117 28.6474C81.1992 28.657 82.7715 27.5791 83.2695 25.991H81.4727C81.082 26.6359 80.2812 27.1845 79.0117 27.1845C77.127 27.1845 75.8184 25.9718 75.7305 23.7582H83.4258V23.0653C83.4355 19.1963 81.082 17.8489 78.8555 17.8489C75.9746 17.8489 74.0508 20.0817 74.0508 23.2962C74.0508 26.5011 75.9453 28.657 79.0117 28.6474ZM75.7402 22.3531C75.8574 20.7362 77.0195 19.3118 78.8555 19.3118C80.6035 19.3118 81.7168 20.6111 81.7266 22.3531H75.7402Z"
        fill="#C1C1C1" />
    <path
        d="M94.5117 17.9836H92.6758L89.7852 26.2798H89.668L86.7773 17.9836H84.9414L88.8477 28.4356H90.5859L94.5117 17.9836Z"
        fill="#C1C1C1" />
    <path
        d="M100.93 28.6474C103.117 28.657 104.689 27.5791 105.188 25.991H103.391C103 26.6359 102.199 27.1845 100.93 27.1845C99.0449 27.1845 97.7363 25.9718 97.6484 23.7582H105.344V23.0653C105.354 19.1963 103 17.8489 100.773 17.8489C97.8926 17.8489 95.9688 20.0817 95.9688 23.2962C95.9688 26.5011 97.8633 28.657 100.93 28.6474ZM97.6582 22.3531C97.7754 20.7362 98.9375 19.3118 100.773 19.3118C102.521 19.3118 103.635 20.6111 103.645 22.3531H97.6582Z"
        fill="#C1C1C1" />
    <path d="M109.711 14.4996H108.031V28.4356H109.711V14.4996Z" fill="#C1C1C1" />
    <path
        d="M117.223 28.6474C120.104 28.657 122.037 26.5011 122.027 23.2577C122.037 19.9951 120.104 17.8489 117.223 17.8489C114.332 17.8489 112.379 19.9951 112.379 23.2577C112.379 26.5011 114.332 28.657 117.223 28.6474ZM114.059 23.2577C114.068 21.1789 115.064 19.3118 117.223 19.3118C119.361 19.3118 120.348 21.1789 120.348 23.2577C120.348 25.3462 119.361 27.1845 117.223 27.1845C115.064 27.1845 114.068 25.3462 114.059 23.2577Z"
        fill="#C1C1C1" />
    <path
        d="M124.734 32.3623H126.414V26.838H126.551C126.912 27.4154 127.615 28.657 129.637 28.6474C132.283 28.657 134.129 26.5589 134.129 23.2385C134.129 19.9277 132.283 17.8489 129.617 17.8489C127.557 17.8489 126.912 19.0808 126.551 19.639H126.355V17.9836H124.734V32.3623ZM126.375 23.2C126.385 20.8805 127.42 19.331 129.402 19.331C131.443 19.331 132.449 21.0153 132.449 23.2C132.449 25.4232 131.414 27.1652 129.402 27.1652C127.449 27.1652 126.385 25.5483 126.375 23.2Z"
        fill="#C1C1C1" />
    <path
        d="M141.27 28.6474C143.457 28.657 145.029 27.5791 145.527 25.991H143.73C143.34 26.6359 142.539 27.1845 141.27 27.1845C139.385 27.1845 138.076 25.9718 137.988 23.7582H145.684V23.0653C145.693 19.1963 143.34 17.8489 141.113 17.8489C138.232 17.8489 136.309 20.0817 136.309 23.2962C136.309 26.5011 138.203 28.657 141.27 28.6474ZM137.998 22.3531C138.115 20.7362 139.277 19.3118 141.113 19.3118C142.861 19.3118 143.975 20.6111 143.984 22.3531H137.998Z"
        fill="#C1C1C1" />
    <path
        d="M148.371 28.4356H150.051V21.8526C150.051 20.4475 151.184 19.408 152.707 19.408C153.146 19.408 153.596 19.4946 153.723 19.5235V17.8489C153.527 17.8296 153.098 17.82 152.844 17.8104C151.594 17.82 150.49 18.5226 150.109 19.5813H149.992V17.9836H148.371V28.4356Z"
        fill="#C1C1C1" />
    <path
        d="M161.762 20.6977H163.402C163.188 19.0038 161.811 17.8489 159.613 17.8489C157.279 17.8489 155.688 19.1385 155.688 20.9287C155.688 22.3242 156.674 23.3155 158.52 23.739L160.121 24.1047C161.322 24.3838 161.859 24.865 161.859 25.6061C161.859 26.5878 160.912 27.2133 159.398 27.2037C158.061 27.2133 157.309 26.7225 157.113 25.7023H155.355C155.639 27.6079 157.055 28.657 159.438 28.6474C162.094 28.657 163.588 27.3192 163.598 25.5098C163.588 24.0566 162.66 23.123 160.766 22.6803L159.184 22.2953C157.943 21.997 157.377 21.5254 157.367 20.8324C157.377 19.9566 158.305 19.2637 159.613 19.254C160.854 19.2637 161.527 19.8315 161.762 20.6977Z"
        fill="#C1C1C1" />
    <path fill-rule="evenodd" clip-rule="evenodd"
        d="M33.7171 13.1979H26.0565C25.3581 13.1979 24.6883 13.4718 24.1944 13.9592C23.7006 14.4467 23.4232 15.1078 23.4232 15.7971C23.4232 16.4865 23.7006 17.1476 24.1944 17.635C24.6883 18.1225 25.3581 18.3963 26.0565 18.3963H27.2535V26.1939C27.2535 26.8833 27.5309 27.5444 28.0247 28.0318C28.5186 28.5193 29.1884 28.7931 29.8868 28.7931C30.5852 28.7931 31.255 28.5193 31.7488 28.0318C32.2427 27.5444 32.5201 26.8833 32.5201 26.1939V18.3963H33.7171C34.4155 18.3963 35.0853 18.1225 35.5791 17.635C36.073 17.1476 36.3504 16.4865 36.3504 15.7971C36.3504 15.1078 36.073 14.4467 35.5791 13.9592C35.0853 13.4718 34.4155 13.1979 33.7171 13.1979V13.1979Z"
        fill="white" />
    <path fill-rule="evenodd" clip-rule="evenodd"
        d="M44.0111 13.1979C42.4486 13.1979 40.9212 13.6553 39.6221 14.5121C38.3229 15.3689 37.3104 16.5867 36.7124 18.0115C36.1145 19.4363 35.9581 21.0042 36.2629 22.5168C36.5677 24.0293 37.3201 25.4187 38.4249 26.5092C39.5298 27.5998 40.9374 28.3424 42.4699 28.6433C44.0023 28.9441 45.5908 28.7897 47.0343 28.1996C48.4778 27.6094 49.7116 26.6099 50.5797 25.3276C51.4478 24.0453 51.9111 22.5377 51.9111 20.9955C51.9111 18.9275 51.0788 16.9441 49.5972 15.4818C48.1157 14.0195 46.1063 13.1979 44.0111 13.1979V13.1979ZM44.0111 24.0673C43.3956 24.0673 42.7939 23.8871 42.2821 23.5496C41.7703 23.2121 41.3714 22.7323 41.1359 22.171C40.9003 21.6097 40.8387 20.9921 40.9588 20.3962C41.0788 19.8004 41.3753 19.253 41.8105 18.8234C42.2457 18.3939 42.8003 18.1013 43.4039 17.9828C44.0076 17.8642 44.6334 17.9251 45.2021 18.1576C45.7707 18.3901 46.2568 18.7838 46.5987 19.2889C46.9407 19.7941 47.1232 20.388 47.1232 20.9955C47.1232 21.8102 46.7953 22.5915 46.2117 23.1676C45.6281 23.7437 44.8365 24.0673 44.0111 24.0673V24.0673Z"
        fill="white" />
    <path fill-rule="evenodd" clip-rule="evenodd"
        d="M19.8299 13.1979C19.1315 13.1979 18.4617 13.4718 17.9678 13.9592C17.474 14.4467 17.1965 15.1078 17.1965 15.7971V26.1939C17.1965 26.8833 17.474 27.5444 17.9678 28.0318C18.4617 28.5193 19.1315 28.7931 19.8299 28.7931C20.5283 28.7931 21.1981 28.5193 21.6919 28.0318C22.1858 27.5444 22.4632 26.8833 22.4632 26.1939V15.7971C22.4632 15.1078 22.1858 14.4467 21.6919 13.9592C21.1981 13.4718 20.5283 13.1979 19.8299 13.1979Z"
        fill="white" />
    <path
        d="M15.7602 15.8089C15.7594 15.2259 15.56 14.66 15.1941 14.2024C14.8282 13.7447 14.317 13.4217 13.7427 13.2854C13.1684 13.1491 12.5643 13.2073 12.0276 13.4507C11.4908 13.6941 11.0526 14.1085 10.7832 14.6274V14.6274L7.86023 20.3905L10.2159 25.0384C10.4025 25.4032 10.4987 25.8066 10.4967 26.2153C10.4946 26.6241 10.3942 27.0265 10.2039 27.3895V27.3895L15.4921 16.9525C15.6687 16.5965 15.7604 16.2053 15.7602 15.8089V15.8089Z"
        fill="#FFC200" />
    <path
        d="M10.2039 25.0407L7.86021 20.3905L4.9372 14.6274C4.60919 14.0426 4.06551 13.605 3.41912 13.4055C2.77273 13.206 2.07333 13.26 1.46623 13.5563C0.859131 13.8526 0.391017 14.3683 0.159147 14.9964C-0.0727229 15.6245 -0.0505209 16.3166 0.22114 16.9289L5.51175 27.38C5.53569 27.4296 5.56202 27.4769 5.59075 27.5241L5.6099 27.5549C5.69371 27.6894 5.78902 27.8167 5.89478 27.9353L5.93548 27.9778C5.9666 28.0109 6.00011 28.0463 6.03602 28.0794L6.08151 28.1196C6.13776 28.1716 6.1969 28.2205 6.25866 28.2661L6.33766 28.3252L6.43102 28.3866L6.53875 28.4528L6.62014 28.4977L6.80208 28.5851L6.87869 28.6158L7.02711 28.6702L7.09414 28.6914C7.16579 28.7131 7.2385 28.7313 7.31199 28.7458H7.36227C7.42451 28.7568 7.48675 28.7662 7.54899 28.7741H7.61602C7.69502 28.7741 7.77402 28.7741 7.85542 28.7741C7.93681 28.7741 8.01581 28.7741 8.09481 28.7741H8.16184C8.22408 28.7741 8.28872 28.7576 8.35096 28.7458H8.39884C8.47234 28.7313 8.54505 28.7131 8.61669 28.6914L8.68372 28.6702L8.83454 28.6158L8.90875 28.5851C8.97099 28.5591 9.03324 28.5284 9.09309 28.4977L9.16969 28.4528L9.27981 28.3866L9.37078 28.3275L9.45696 28.2637C9.51202 28.2212 9.56469 28.1787 9.61496 28.1338L9.67721 28.0794L9.77057 27.9825L9.81605 27.9329C9.91939 27.8186 10.0131 27.6961 10.0961 27.5667L10.1201 27.5241C10.1488 27.4793 10.1728 27.4344 10.1967 27.3895C10.3859 27.0264 10.4852 26.6242 10.4864 26.2159C10.4877 25.8077 10.3908 25.4049 10.2039 25.0407V25.0407Z"
        fill="white" />
</svg>